<svg xmlns="http://www.w3.org/2000/svg" width="14.257" height="14.257" viewBox="0 0 14.257 14.257">
  <path id="Path_5" data-name="Path 5" d="M13.3,3.55A7.1,7.1,0,0,0,10.707.956,6.973,6.973,0,0,0,7.129,0,6.973,6.973,0,0,0,3.55.956,7.1,7.1,0,0,0,.956,3.55,6.973,6.973,0,0,0,0,7.128a6.974,6.974,0,0,0,.956,3.578A7.1,7.1,0,0,0,3.55,13.3a6.973,6.973,0,0,0,3.578.956,6.974,6.974,0,0,0,3.578-.956A7.1,7.1,0,0,0,13.3,10.707a6.974,6.974,0,0,0,.956-3.578A6.974,6.974,0,0,0,13.3,3.55ZM8.317,11.584a.286.286,0,0,1-.3.3H6.238a.286.286,0,0,1-.3-.3V9.8a.286.286,0,0,1,.3-.3H8.02a.286.286,0,0,1,.3.3ZM10.577,6.1a2.454,2.454,0,0,1-.26.562,2.151,2.151,0,0,1-.413.445,3.873,3.873,0,0,1-.427.325q-.158.1-.455.264a1.563,1.563,0,0,0-.506.459.883.883,0,0,0-.2.459.286.286,0,0,1-.3.3H6.238a.286.286,0,0,1-.3-.3V8.279a1.717,1.717,0,0,1,.487-1.165,3.179,3.179,0,0,1,1.072-.8,1.878,1.878,0,0,0,.631-.418.832.832,0,0,0,.186-.566.676.676,0,0,0-.348-.548,1.359,1.359,0,0,0-.794-.241,1.351,1.351,0,0,0-.8.223,4.626,4.626,0,0,0-.8.854.274.274,0,0,1-.232.112.262.262,0,0,1-.176-.056L3.945,4.743a.265.265,0,0,1-.074-.39A3.791,3.791,0,0,1,7.314,2.376a3.615,3.615,0,0,1,2.864,1.457,2.493,2.493,0,0,1,.515,1.513A2.355,2.355,0,0,1,10.577,6.1Z" fill="#0054ff"/>
</svg>
