<svg xmlns="http://www.w3.org/2000/svg" width="16.368" height="16.367" viewBox="0 0 16.368 16.367">
  <g id="edit_1_" data-name="edit (1)" transform="translate(0 -0.004)">
    <g id="Group_338" data-name="Group 338" transform="translate(0 1.173)">
      <g id="Group_337" data-name="Group 337">
        <path id="Path_38" data-name="Path 38" d="M13.445,41.152a.585.585,0,0,0-.585.585v5.845a.585.585,0,0,1-.585.585H1.754a.585.585,0,0,1-.585-.585V35.891a.585.585,0,0,1,.585-.585H8.768a.585.585,0,1,0,0-1.169H1.754A1.754,1.754,0,0,0,0,35.891V47.582a1.754,1.754,0,0,0,1.754,1.754H12.276a1.754,1.754,0,0,0,1.754-1.754V41.736A.585.585,0,0,0,13.445,41.152Z" transform="translate(0 -34.137)" fill="#0054ff"/>
      </g>
    </g>
    <g id="Group_340" data-name="Group 340" transform="translate(3.508 0.004)">
      <g id="Group_339" data-name="Group 339">
        <path id="Path_39" data-name="Path 39" d="M114.613.659a2.237,2.237,0,0,0-3.165,0l-7.7,7.7a.591.591,0,0,0-.141.229l-1.169,3.507a.585.585,0,0,0,.554.769.594.594,0,0,0,.185-.03l3.507-1.169a.585.585,0,0,0,.229-.141l7.7-7.7A2.238,2.238,0,0,0,114.613.659ZM113.787,3l-7.6,7.6-2.27.758.756-2.267,7.6-7.6A1.068,1.068,0,1,1,113.787,3Z" transform="translate(-102.409 -0.004)" fill="#0054ff"/>
      </g>
    </g>
  </g>
</svg>
