<svg xmlns="http://www.w3.org/2000/svg" width="28.214" height="28.212" viewBox="0 0 28.214 28.212">
  <g id="user" transform="translate(0 -0.011)">
    <g id="Group_228" data-name="Group 228" transform="translate(0 0.011)">
      <path id="Path_19" data-name="Path 19" d="M24.3,4.352A14.1,14.1,0,1,0,4.341,24.266c.008.008.011.02.019.027.082.079.17.145.253.221.227.2.453.41.692.6.128.1.261.2.392.294.226.168.451.336.687.492.16.1.325.2.49.3.218.131.434.263.659.383.19.1.385.187.578.279.212.1.42.2.637.292s.434.161.654.24.409.151.619.216c.238.072.481.127.723.186.2.049.4.106.6.146.278.055.56.091.842.129.174.024.345.058.521.076.461.045.927.071,1.4.071s.935-.025,1.4-.071c.176-.017.347-.051.521-.076.282-.038.564-.074.842-.129.2-.04.4-.1.6-.146.242-.059.486-.115.723-.186.211-.064.414-.143.619-.216s.439-.151.654-.24.425-.192.637-.292c.193-.092.388-.178.578-.279.225-.12.441-.252.659-.383.164-.1.329-.192.49-.3.236-.155.461-.323.687-.492.131-.1.264-.191.392-.294.239-.191.465-.395.692-.6.083-.076.171-.142.253-.221.008-.007.011-.019.019-.027A14.085,14.085,0,0,0,24.3,4.352Zm-2.264,18.86c-.183.161-.373.314-.564.462-.113.087-.226.172-.341.255-.182.132-.368.257-.556.377-.137.088-.277.172-.418.255q-.266.151-.54.3c-.161.083-.325.16-.491.237s-.348.158-.526.23-.368.139-.554.2c-.17.058-.34.119-.513.17-.2.06-.412.11-.62.16-.163.038-.324.082-.49.114-.239.046-.482.079-.727.112-.139.018-.277.043-.417.057-.387.037-.779.059-1.175.059s-.788-.022-1.175-.059c-.14-.014-.278-.039-.417-.057-.245-.033-.489-.065-.727-.112-.165-.032-.326-.076-.49-.114-.209-.05-.416-.1-.62-.16-.172-.051-.342-.112-.513-.17-.186-.064-.373-.13-.554-.2s-.353-.15-.526-.23-.329-.154-.491-.237c-.182-.095-.363-.194-.54-.3-.141-.083-.281-.167-.418-.255-.188-.12-.374-.245-.556-.377-.116-.083-.229-.168-.341-.255-.191-.148-.381-.3-.564-.462-.044-.033-.085-.076-.128-.114a8.082,8.082,0,0,1,5.493-7.55,5.972,5.972,0,0,0,5.131,0,8.082,8.082,0,0,1,5.493,7.55C22.119,23.136,22.078,23.174,22.035,23.212ZM10.59,8.087a4.029,4.029,0,1,1,5.487,5.487.021.021,0,0,0-.017.006,4.268,4.268,0,0,1-.842.357c-.052.015-.1.035-.156.048-.1.026-.207.044-.31.062a4.08,4.08,0,0,1-.591.059h-.115a4.08,4.08,0,0,1-.591-.059c-.1-.018-.208-.036-.31-.062-.053-.013-.1-.033-.156-.048a4.264,4.264,0,0,1-.842-.357l-.018-.006A4.029,4.029,0,0,1,10.59,8.087ZM23.948,21.1h0a10.123,10.123,0,0,0-5.393-6.943,6.044,6.044,0,1,0-8.9,0A10.123,10.123,0,0,0,4.257,21.1a12.088,12.088,0,1,1,19.691,0Z" transform="translate(0 -0.011)" fill="#fff"/>
    </g>
  </g>
</svg>
