<svg xmlns="http://www.w3.org/2000/svg" width="28.214" height="29.259" viewBox="0 0 28.214 29.259">
  <g id="reload" transform="translate(-8.236)">
    <g id="Group_229" data-name="Group 229" transform="translate(8.236)">
      <path id="Path_20" data-name="Path 20" d="M22.4,1.084a14.088,14.088,0,0,0-9.829,3.959V1.084a1.084,1.084,0,1,0-2.167,0v6.5a1.084,1.084,0,0,0,.741,1.028l6.5,2.167a1.085,1.085,0,0,0,.685-2.059l-4.8-1.6a11.872,11.872,0,1,1-2.963,6.059,1.084,1.084,0,1,0-2.134-.38l0,.019a14.25,14.25,0,0,0-.2,2.348A14.107,14.107,0,1,0,22.4,1.084Z" transform="translate(-8.236)" fill="#1f1f1f"/>
    </g>
  </g>
</svg>
