<svg xmlns="http://www.w3.org/2000/svg" width="29.925" height="25.785" viewBox="0 0 29.925 25.785">
  <g id="tickets" transform="translate(0 -35.415)">
    <g id="Group_231" data-name="Group 231" transform="translate(0 35.415)">
      <g id="Group_230" data-name="Group 230" transform="translate(0 0)">
        <path id="Path_21" data-name="Path 21" d="M29.9,46.431,26.447,35.819a.585.585,0,0,0-.737-.375L.4,43.667a.585.585,0,0,0-.375.737l1.632,5.023c0,.01,0,.019,0,.029V60.615a.585.585,0,0,0,.584.584H28.854a.585.585,0,0,0,.584-.584V49.456a.585.585,0,0,0-.584-.584H24.276l5.245-1.7A.585.585,0,0,0,29.9,46.431Zm-1.627,3.61v9.99H2.829v-9.99H6.066v6.511a.584.584,0,0,0,1.169,0V50.041H28.269Zm-7.775-1.169H2.71L1.321,44.6l3.081-1L5.58,47.178a.584.584,0,1,0,1.11-.365L5.514,43.236l20-6.5,3.087,9.5Z" transform="translate(0 -35.415)" fill="#1f1f1f"/>
        <path id="Path_22" data-name="Path 22" d="M157.542,95.342a.585.585,0,0,0-.737-.375l-15.238,4.952a.584.584,0,1,0,.361,1.112l15.238-4.952A.585.585,0,0,0,157.542,95.342Z" transform="translate(-132.913 -91.459)" fill="#1f1f1f"/>
        <path id="Path_23" data-name="Path 23" d="M365.105,133.331l2.884-.937a.584.584,0,0,0-.361-1.112l-2.884.937a.584.584,0,1,0,.361,1.112Z" transform="translate(-343.046 -125.652)" fill="#1f1f1f"/>
        <path id="Path_24" data-name="Path 24" d="M418.68,195.634a.584.584,0,0,0,.737.375l.913-.3a.584.584,0,1,0-.361-1.112l-.913.3A.585.585,0,0,0,418.68,195.634Z" transform="translate(-394.182 -185.27)" fill="#1f1f1f"/>
        <path id="Path_25" data-name="Path 25" d="M369.472,211.01l-.913.3a.584.584,0,1,0,.361,1.112l.913-.3a.584.584,0,1,0-.361-1.112Z" transform="translate(-346.638 -200.72)" fill="#1f1f1f"/>
        <path id="Path_26" data-name="Path 26" d="M158.7,186.354l-5.333,1.733a.584.584,0,1,0,.361,1.112l5.333-1.733a.584.584,0,0,0-.361-1.112Z" transform="translate(-144.025 -177.505)" fill="#1f1f1f"/>
        <path id="Path_27" data-name="Path 27" d="M104.372,420.364a.585.585,0,0,0-.584.584v.229a.584.584,0,0,0,1.169,0v-.229A.585.585,0,0,0,104.372,420.364Z" transform="translate(-97.722 -397.865)" fill="#1f1f1f"/>
        <path id="Path_28" data-name="Path 28" d="M161.554,313.247a.585.585,0,0,0,.584.584h16.023a.584.584,0,1,0,0-1.169H162.138A.584.584,0,0,0,161.554,313.247Z" transform="translate(-152.112 -296.459)" fill="#1f1f1f"/>
        <path id="Path_29" data-name="Path 29" d="M387.427,350.847h-3.033a.584.584,0,1,0,0,1.169h3.033a.584.584,0,0,0,0-1.169Z" transform="translate(-361.378 -332.411)" fill="#1f1f1f"/>
        <path id="Path_30" data-name="Path 30" d="M420.825,417.427h-.96a.584.584,0,1,0,0,1.169h.96a.584.584,0,1,0,0-1.169Z" transform="translate(-394.776 -395.1)" fill="#1f1f1f"/>
        <path id="Path_31" data-name="Path 31" d="M367.731,417.427h-.96a.584.584,0,0,0,0,1.169h.96a.584.584,0,1,0,0-1.169Z" transform="translate(-344.785 -395.1)" fill="#1f1f1f"/>
        <path id="Path_32" data-name="Path 32" d="M167.747,350.847h-5.608a.584.584,0,1,0,0,1.169h5.608a.584.584,0,1,0,0-1.169Z" transform="translate(-152.113 -332.411)" fill="#1f1f1f"/>
      </g>
    </g>
  </g>
</svg>