<svg xmlns="http://www.w3.org/2000/svg" width="38.305" height="36.037" viewBox="0 0 38.305 36.037">
  <path id="Path_15" data-name="Path 15" d="M26.353,4.86c-.769,2.726-2.5,3.858-5.329,3.7-2.145-.122-2.254-.007-2.014,2.073a5.3,5.3,0,0,1-1.547,4.928,4.653,4.653,0,0,1-4.276.906c-2.164-.4-2.764.406-2.166,2.522a8.688,8.688,0,0,1,.353,2.849,4.045,4.045,0,0,1-4.629,3.849,5.905,5.905,0,0,0-2.161.118c-1,.306-1.542.963-.922,2.11a1.642,1.642,0,0,1-.641,2.479c-.937.512-1.785.088-2.435-1.129-1.726-3.227.526-6.771,4.51-7.094a5.727,5.727,0,0,1,.693-.016c2.483.082,2.661-.165,1.879-2.619-1.231-3.865,1.372-7,5.409-6.511.366.044.729.107,1.1.162,1.016.154,1.488-.365,1.5-1.312.006-.641-.128-1.282-.185-1.925a4.386,4.386,0,0,1,4.458-4.861c.46,0,.919.075,1.379.078,1.484.012,2.125-.973,1.547-2.37-.087-.212-.244-.393-.331-.6-.371-.9-.179-1.8.684-2.1a2.357,2.357,0,0,1,2.057.375A4.638,4.638,0,0,1,26.353,4.86Z" transform="translate(28.378 0) rotate(68)" fill="#0e003d"/>
</svg>
